<svg fill="none" height="50" viewBox="0 0 189 50" width="189" xmlns="http://www.w3.org/2000/svg"><g fill="#ffc801"><path d="m110.609 26.6914v11.3086h-5.127v-21.5039h11.016.923c1.318 0 2.485.1758 3.501.5273 1.025.3418 1.787.9327 2.285 1.7725.527.8398.869 1.6162 1.025 2.3291.157.7129.235 1.5186.235 2.417 0 .8203-.059 1.5381-.176 2.1533-.117.625-.444 1.416-.981 2.3731-.528.957-1.353 1.6162-2.476 1.9775-1.113.3613-2.603.542-4.468.542h-2.578zm0-.6592h3.662.865c1.289 0 2.173-.1025 2.651-.3076.498-.1953.835-.4736 1.011-.835.185-.3613.278-.8398.278-1.4355 0-.5273-.083-.9668-.249-1.3184-.195-.3222-.561-.5664-1.098-.7324-.528-.1758-1.358-.2637-2.491-.2637h-.761-3.868z"/><path d="m140.214 16.4961 7.807 21.5039h-5.405l-1.435-3.8965h-4.952l-2.519-4.2627-3.091 8.1592h-5.552l7.954-21.5039zm-6.358 12.9492h5.757l-2.871-8.1006z"/><path d="m150.995 16.4961h16.231v4.1894l-11.822 13.0811h11.822v4.2334h-18.56v-4.4971l11.997-12.7881h-12.363z"/><path d="m168.588 16.4961h19.746l-2.461 4.2187h-5.229v17.2852h-5.098v-17.2852h-6.958z"/></g><path d="m57.8457 16.4961h11.543c.7422 0 1.4062.0244 1.9922.0732.5957.0489 1.1279.1368 1.5966.2637.4688.127.8887.3174 1.2598.5713s.7178.5908 1.04 1.0107c.6543.8399 1.084 1.7041 1.2891 2.5928.2148.8887.3223 1.7627.3223 2.6221 0 .8398-.083 1.6406-.2491 2.4023-.166.7617-.4785 1.4209-.9375 1.9776-.4394.5566-.9912.9863-1.6552 1.289-.6641.3028-1.1914.4981-1.5821.586-.3906.0879-.7959.1318-1.2158.1318l5.3174 7.9834h-5.9766l-7.5878-11.6748v11.6748h-5.1563zm5.1563 9.2285h4.2919.6006c1.3379.0879 2.2803-.0781 2.8272-.498.5566-.42.8545-1.1133.8935-2.0801.0586-.8399-.2197-1.4649-.8349-1.875-.6055-.4102-1.5283-.5957-2.7686-.5567h-.6006-4.4091z" fill="#000"/><path d="m91.5518 16.4961c.6738 0 1.2793.0195 1.8164.0586.5468.0391 1.0302.1172 1.4502.2344.4199.1171.791.2832 1.1132.498.3223.2051.6202.4785.8936.8203.5664.6641.9473 1.3379 1.1426 2.0215.1953.6738.2929 1.3623.2929 2.0654 0 .2149-.0195.4688-.0586.7618-.039.2929-.0976.6298-.1757 1.0107-.1563.7324-.5127 1.3965-1.0694 1.9922-.5468.5859-1.3086 1.04-2.2851 1.3623 1.0156.3027 1.8799.9033 2.5927 1.8017.7129.8985 1.0889 2.0899 1.128 3.5743 0 1.1132-.3125 2.1631-.9375 3.1494-.6348.957-1.3721 1.5527-2.2119 1.7871-.8399.2441-1.9727.3662-3.3985.3662h-13.2568v-21.5039zm-7.837 8.335h5.2295.6885c1.2012 0 2.085-.1514 2.6514-.4541.5664-.3028.8496-.7715.8496-1.4063.0391-.5762-.2002-1.0498-.7178-1.4209s-1.3965-.5371-2.6367-.498h-.542-5.5225zm0 8.6132h5.4639.6885c.8789 0 1.5381-.0537 1.9775-.1611.4199-.0977.7373-.332.9522-.7031.2246-.3711.3369-.7227.3369-1.0547.0391-.625-.2442-1.1231-.8496-1.4942-.5957-.371-1.6113-.5224-3.0469-.4541h-.6885-2.4609l-2.3731-4.0283z" fill="#000"/><path clip-rule="evenodd" d="m19.2168 38.442c-5.2032-2.2418-8.8469-7.4156-8.8469-13.4416 0-5.6594 3.213-10.5668 7.9151-13.0008v4.2397c-2.6278 2.0179-4.3231 5.1907-4.3231 8.7611 0 3.9757 2.1021 7.4603 5.2549 9.4034zm12.4982-26.4417c4.7013 2.4333 7.9151 7.3415 7.9151 13.0009 0 6.026-3.643 11.1998-8.8469 13.4408v-4.0374c3.1536-1.9431 5.2549-5.4278 5.2549-9.4034 0-3.5704-1.6945-6.7432-4.3231-8.7612zm-8.281 24.142c0-.8654.7018-1.5663 1.5664-1.5663s1.5663.7017 1.5663 1.5663-.7017 1.5663-1.5663 1.5663-1.5664-.7017-1.5664-1.5663zm-4.1578-21.0664h11.4484v-1.5386h-11.4484zm0-2.4093h11.4484v-.8515c0-.4702-.3837-.8538-.8546-.8538h-9.74c-.4701 0-.8546.3836-.8546.8538v.8515zm0 3.2808v7.2157h1.1286c.5474-1.1726 1.6914-2.0867 3.1119-2.4688v11.3642c0 .6531-.5327 1.1858-1.1858 1.1858h-1.547v5.7944h8.433v-5.7944h-1.5463c-.653 0-1.1865-.5327-1.1865-1.1858v-11.3634c1.4212.3821 2.5645 1.2961 3.1126 2.4688h1.1279v-7.2157h-11.4484zm-2.5004-6.83965c1.3316-.72257 2.6092-1.67673 3.3256-3.03463.7983-1.50998.8948-3.44378.9218-5.122048l.01-.644598.6392-.084917c1.1032-.1474475 2.2156-.221557 3.328-.221557 1.3278 0 2.6556.104988 3.9664.314965l.3018.047863.1814.245488c1.4413 1.946914 3.5349 3.311774 5.8964 3.852154l1.6698.38135-1.4151.96574c-1.5609 1.06301-3.3256 1.79175-5.1784 2.13837 1.4521.42999 3.03.65927 4.4976.20612 1.6319-.5041 3.067-1.80256 4.2713-2.96979l.4624-.44851.5126.39139c1.9407 1.4845 3.6607 3.24846 5.0935 5.22706l.1798.2478-.0455.301c-.3559 2.3947.159 4.8403 1.4459 6.8907l.9094 1.4505-1.6821-.318c-1.8559-.3505-3.6191-1.0839-5.1746-2.1492.7226 1.3317 1.6768 2.6093 3.0347 3.3264 1.5099.7967 3.4437.894 5.1212.921l.6454.01.0849.64c.1467 1.1024.2208 2.2156.2208 3.328 0 1.3278-.1058 2.6556-.315 3.9672l-.0478.301-.2447.1814c-1.947 1.4413-3.3118 3.5349-3.8522 5.8964l-.3821 1.6705-.965-1.4158c-1.0645-1.5601-1.7925-3.3249-2.1399-5.1784-.43 1.4521-.6585 3.0308-.2053 4.4976.5041 1.6319 1.8025 3.067 2.9697 4.2713l.4486.4624-.3914.5118c-1.4845 1.9408-3.2485 3.6615-5.2263 5.095l-.2478.1784-.3018-.0448c-2.3947-.3566-4.8396.1583-6.8899 1.4444l-1.4513.9109.318-1.6837c.3513-1.855 1.0839-3.6182 2.1492-5.1737-1.3309.7225-2.6085 1.6767-3.3257 3.0346-.7974 1.51-.8939 3.4438-.9202 5.122l-.0108.6446-.6392.0849c-1.1023.1475-2.2155.2216-3.3279.2216-1.3278 0-2.6556-.105-3.968-.3142l-.3011-.0479-.1821-.2462c-1.4413-1.9469-3.5349-3.3118-5.8956-3.8522l-1.6706-.3813 1.4158-.965c1.5602-1.0645 3.3249-1.7925 5.1784-2.1391-1.452-.4308-3.0307-.6593-4.4983-.2069-1.6311.5041-3.0662 1.8025-4.2713 2.9698l-.4624.4485-.51259-.3914c-1.93997-1.483-3.65993-3.2485-5.09349-5.227l-.1791-.2478.04478-.3011c.35665-2.3947-.15826-4.8403-1.44514-6.8907l-.91016-1.4513 1.68214.3181c1.85582.3512 3.61901 1.0846 5.17531 2.1492-.72257-1.3309-1.6775-2.6085-3.03463-3.3265-1.50998-.7967-3.44378-.8932-5.122048-.9202l-.64537-.01-.084917-.64c-.1466755-1.1008-.220785-2.2132-.220785-3.3264 0-1.3278.10576-2.6556.314965-3.968l.047863-.301.245488-.1814c1.946144-1.4413 3.311774-3.5349 3.851384-5.8964l.38212-1.6698.96497 1.4158c1.06455 1.5602 1.79252 3.3249 2.13991 5.1784.42999-1.452.65927-3.03.20535-4.4975-.50333-1.6319-1.80179-3.067-2.96902-4.2713l-.44851-.4632.39139-.51182c1.48373-1.94074 3.24847-3.66147 5.22699-5.09426l.2471-.1791.3018.04478c2.3947.35665 4.8395-.15826 6.8899-1.44437l1.4513-.91093-.3181 1.68368c-.3504 1.85505-1.0838 3.61747-2.1491 5.17377z" fill="#ffc801" fill-rule="evenodd"/></svg>

